<svg width="326" height="64" viewBox="0 0 326 64" fill="none" xmlns="http://www.w3.org/2000/svg">
<g clip-path="url(#clip0_470_40928)">
<g opacity="0.3">
<mask id="mask0_470_40928" style="mask-type:alpha" maskUnits="userSpaceOnUse" x="-1" y="-86" width="325" height="215">
<path fill-rule="evenodd" clip-rule="evenodd" d="M269.463 -76.4387C281.824 -88.6959 301.865 -88.6953 314.226 -76.4377C326.586 -64.1801 326.586 -44.3069 314.226 -32.049L314.227 -32.0481C326.587 -19.7903 326.587 0.0837555 314.227 12.3416C301.866 24.5992 281.825 24.5993 269.464 12.3416L269.463 12.3406V12.3416C257.102 24.5993 237.061 24.5994 224.7 12.3416C212.339 0.0837708 212.34 -19.7902 224.7 -32.0481L224.701 -32.05C212.342 -44.3079 212.342 -64.1803 224.702 -76.4377C237.063 -88.6949 257.102 -88.6952 269.463 -76.4387Z" fill="white"/>
<path fill-rule="evenodd" clip-rule="evenodd" d="M161.408 -76.4387C173.769 -88.6959 193.81 -88.6953 206.171 -76.4377C218.532 -64.1801 218.531 -44.3069 206.171 -32.049L206.172 -32.0481C218.533 -19.7903 218.533 0.0837555 206.172 12.3416C193.811 24.5992 173.77 24.5993 161.409 12.3416L161.408 12.3406V12.3416C149.047 24.5993 129.006 24.5994 116.646 12.3416C104.285 0.0837708 104.285 -19.7902 116.646 -32.0481L116.647 -32.05C104.287 -44.3079 104.287 -64.1803 116.648 -76.4377C129.008 -88.6949 149.047 -88.6952 161.408 -76.4387Z" fill="white"/>
<path fill-rule="evenodd" clip-rule="evenodd" d="M53.338 -76.4386C65.6989 -88.6958 85.74 -88.6952 98.1007 -76.4376C110.461 -64.18 110.461 -44.3068 98.1007 -32.0489L98.1016 -32.0479C110.462 -19.7901 110.462 0.0838776 98.1016 12.3417C85.7408 24.5993 65.6997 24.5994 53.339 12.3417L53.338 12.3407V12.3417C40.9771 24.5994 20.9361 24.5995 8.57528 12.3417C-3.78553 0.0838928 -3.78549 -19.7901 8.57528 -32.0479L8.57625 -32.0499C-3.7833 -44.3078 -3.78317 -64.1802 8.57723 -76.4376C20.9377 -88.6947 40.9771 -88.695 53.338 -76.4386Z" fill="white"/>
<path fill-rule="evenodd" clip-rule="evenodd" d="M269.463 30.7273C281.824 18.4701 301.865 18.4707 314.226 30.7283C326.586 42.9859 326.586 62.8591 314.226 75.117L314.227 75.1179C326.587 87.3758 326.587 107.25 314.227 119.508C301.866 131.765 281.825 131.765 269.464 119.508L269.463 119.507V119.508C257.102 131.765 237.061 131.765 224.7 119.508C212.339 107.25 212.34 87.3758 224.7 75.1179L224.701 75.116C212.342 62.8581 212.342 42.9857 224.702 30.7283C237.063 18.4712 257.102 18.4709 269.463 30.7273Z" fill="white"/>
<path fill-rule="evenodd" clip-rule="evenodd" d="M161.408 30.7274C173.769 18.4701 193.81 18.4707 206.171 30.7284C218.532 42.986 218.531 62.8592 206.171 75.117L206.172 75.118C218.533 87.3758 218.533 107.25 206.172 119.508C193.811 131.765 173.77 131.765 161.409 119.508L161.408 119.507V119.508C149.047 131.765 129.006 131.765 116.646 119.508C104.285 107.25 104.285 87.3758 116.646 75.118L116.647 75.1161C104.287 62.8581 104.287 42.9858 116.648 30.7284C129.008 18.4712 149.047 18.4709 161.408 30.7274Z" fill="white"/>
<path fill-rule="evenodd" clip-rule="evenodd" d="M53.338 30.7275C65.6989 18.4703 85.74 18.4708 98.1007 30.7285C110.461 42.9861 110.461 62.8593 98.1007 75.1172L98.1016 75.1181C110.462 87.3759 110.462 107.25 98.1016 119.508C85.7408 131.765 65.6997 131.766 53.339 119.508L53.338 119.507V119.508C40.9771 131.766 20.9361 131.766 8.57528 119.508C-3.78553 107.25 -3.78549 87.376 8.57528 75.1181L8.57625 75.1162C-3.7833 62.8583 -3.78317 42.9859 8.57723 30.7285C20.9377 18.4713 40.9771 18.471 53.338 30.7275Z" fill="white"/>
</mask>
<g mask="url(#mask0_470_40928)">
<rect x="-0.703125" y="-85.6289" width="324.199" height="214.331" fill="#C9DAFD"/>
</g>
</g>
</g>
<defs>
<clipPath id="clip0_470_40928">
<rect width="326" height="102" fill="white" transform="translate(0 -19)"/>
</clipPath>
</defs>
</svg>
