<svg width="28" height="28" viewBox="0 0 28 28" fill="none" xmlns="http://www.w3.org/2000/svg">
<path d="M16.5273 6.22168C18.7053 6.22168 19.7951 6.22164 20.627 6.64551C21.3585 7.01832 21.9534 7.61318 22.3262 8.34473C22.75 9.17661 22.75 10.2664 22.75 12.4443V13.6104C22.75 15.788 22.7499 16.8772 22.3262 17.709C21.9534 18.4407 21.3586 19.0363 20.627 19.4092C19.7951 19.833 18.7053 19.833 16.5273 19.833H9.54102C9.2833 19.8331 9.03576 19.9359 8.85352 20.1182L6.91016 22.0615C6.29769 22.674 5.25 22.2402 5.25 21.374V12.4443C5.25 10.2664 5.24996 9.17661 5.67383 8.34473C6.04664 7.61318 6.6415 7.01832 7.37305 6.64551C8.20493 6.22164 9.29467 6.22168 11.4727 6.22168H16.5273ZM11.0859 14C10.5491 14 10.1134 14.4348 10.1133 14.9717C10.1135 15.5084 10.5492 15.9443 11.0859 15.9443H14.0029C14.5396 15.9442 14.9743 15.5083 14.9746 14.9717C14.9745 14.4349 14.5397 14.0002 14.0029 14H11.0859ZM11.0859 10.1104C10.549 10.1104 10.1133 10.5461 10.1133 11.083C10.1135 11.6197 10.5492 12.0557 11.0859 12.0557H16.9189C17.4557 12.0557 17.8913 11.6197 17.8916 11.083C17.8916 10.5461 17.4559 10.1104 16.9189 10.1104H11.0859Z" fill="url(#paint0_linear_1_5901)"/>
<defs>
<linearGradient id="paint0_linear_1_5901" x1="5.25" y1="14.285" x2="22.75" y2="14.285" gradientUnits="userSpaceOnUse">
<stop stop-color="#74A1FB"/>
<stop offset="1" stop-color="#C9DAFD"/>
</linearGradient>
</defs>
</svg>
