<svg width="28" height="28" viewBox="0 0 28 28" fill="none" xmlns="http://www.w3.org/2000/svg">
<path d="M3.5 9.33301H18.9C20.8602 9.33301 21.8403 9.33301 22.589 9.71449C23.2475 10.05 23.783 10.5855 24.1185 11.244C24.5 11.9927 24.5 12.9728 24.5 14.933V16.5663C24.5 18.5265 24.5 19.5066 24.1185 20.2553C23.783 20.9139 23.2475 21.4493 22.589 21.7849C21.8403 22.1663 20.8602 22.1663 18.9 22.1663H9.1C7.13982 22.1663 6.15972 22.1663 5.41103 21.7849C4.75247 21.4493 4.21703 20.9139 3.88148 20.2553C3.5 19.5066 3.5 18.5265 3.5 16.5663V9.33301Z" fill="url(#paint0_linear_1_5881)"/>
<path d="M3.5 9.33301C3.5 8.24581 3.5 7.70221 3.67761 7.27341C3.91443 6.70168 4.36867 6.24744 4.94041 6.01062C5.3692 5.83301 5.9128 5.83301 7 5.83301H9.73367C10.6874 5.83301 11.1643 5.83301 11.5931 6.01062C12.0219 6.18824 12.3591 6.52544 13.0335 7.19984L15.1667 9.33301H3.5Z" fill="url(#paint1_linear_1_5881)"/>
<defs>
<linearGradient id="paint0_linear_1_5881" x1="3.5" y1="15.7497" x2="24.5" y2="15.7497" gradientUnits="userSpaceOnUse">
<stop stop-color="#74A1FB"/>
<stop offset="1" stop-color="#C9DAFD"/>
</linearGradient>
<linearGradient id="paint1_linear_1_5881" x1="3.5" y1="7.58301" x2="15.1667" y2="7.58301" gradientUnits="userSpaceOnUse">
<stop stop-color="#74A1FB"/>
<stop offset="1" stop-color="#C9DAFD"/>
</linearGradient>
</defs>
</svg>
