<svg width="28" height="28" viewBox="0 0 28 28" fill="none" xmlns="http://www.w3.org/2000/svg">
<path fill-rule="evenodd" clip-rule="evenodd" d="M11.6211 4.7471C13.1029 3.47238 15.2937 3.47226 16.7754 4.7471C17.4154 5.29768 18.2149 5.62915 19.0567 5.69241C21.0059 5.8387 22.5558 7.38773 22.7022 9.33694C22.7654 10.1789 23.0968 10.9791 23.6475 11.6192C24.922 13.1009 24.9221 15.2918 23.6475 16.7735C23.0969 17.4134 22.7654 18.2129 22.7022 19.0547C22.5559 21.004 21.0059 22.5539 19.0567 22.7002C18.2148 22.7635 17.4154 23.0949 16.7754 23.6455C15.2938 24.9202 13.1028 24.92 11.6211 23.6455C10.9811 23.0948 10.1809 22.7634 9.3389 22.7002C7.38968 22.5539 5.84065 21.0039 5.69436 19.0547C5.6311 18.2129 5.29964 17.4134 4.74905 16.7735C3.47422 15.2918 3.47433 13.1009 4.74905 11.6192C5.29974 10.9791 5.63117 10.1789 5.69436 9.33694C5.84072 7.38779 7.38975 5.83876 9.3389 5.69241C10.1809 5.62922 10.9811 5.29779 11.6211 4.7471ZM19.3096 10.4668C18.8606 10.0628 18.1698 10.099 17.7657 10.5479L13.2198 15.5987L10.5283 13.3555C10.0643 12.969 9.37494 13.0322 8.98831 13.4961C8.60165 13.9601 8.66407 14.6494 9.12796 15.0362L12.4121 17.7735C12.9842 18.2502 13.831 18.1892 14.3291 17.6358L19.3916 12.0108C19.7954 11.5618 19.7585 10.8708 19.3096 10.4668Z" fill="url(#paint0_linear_1_5891)"/>
<defs>
<linearGradient id="paint0_linear_1_5891" x1="9.04301" y1="18.0832" x2="24.5013" y2="5.83309" gradientUnits="userSpaceOnUse">
<stop stop-color="#EEF3FF"/>
<stop offset="1" stop-color="#A6C2FC"/>
</linearGradient>
</defs>
</svg>
