<svg width="48" height="48" viewBox="0 0 48 48" fill="none" xmlns="http://www.w3.org/2000/svg">
<path d="M20.3526 10.2712C23.114 5.48825 29.2304 3.84938 34.0133 6.61081C38.7959 9.37224 40.4342 15.4868 37.6732 20.2696L37.6699 20.2725C42.4519 23.0341 44.0906 29.1488 41.3298 33.9313C38.5685 38.7139 32.4538 40.3518 27.671 37.5912C24.9092 42.3729 18.7965 44.0114 14.0141 41.2505C9.23199 38.4896 7.59106 32.3753 10.3504 27.5927L10.348 27.5913C5.56595 24.8298 3.92747 18.7151 6.68817 13.9326C9.44959 9.14963 15.5659 7.51076 20.3489 10.2722L20.3526 10.2712Z" fill="url(#paint0_linear_1_5675)"/>
<defs>
<linearGradient id="paint0_linear_1_5675" x1="12.1628" y1="38.5321" x2="38.274" y2="31.5356" gradientUnits="userSpaceOnUse">
<stop stop-color="#A7C2FC"/>
<stop offset="1" stop-color="#C9DAFD"/>
</linearGradient>
</defs>
</svg>
