<svg
  width="24"
  height="24"
  viewBox="0 0 24 24"
  xmlns="http://www.w3.org/2000/svg"
>
  <g transform="translate(12 12) scale(1.05) translate(-12 -9)">
    <path
      fill-rule="evenodd"
      clip-rule="evenodd"
      d="M12.0042 4.89415C13.9568 2.94153 17.1229 2.94153 19.0755 4.89415C21.0279 6.84673 21.0279 10.0119 19.0755 11.9645L19.0735 11.9654C21.0257 13.918 21.0258 17.0832 19.0735 19.0358C17.121 20.9882 13.9559 20.988 12.0032 19.0358C10.0506 20.9878 6.88633 20.9881 4.93389 19.0358C2.98161 17.0835 2.98036 13.9181 4.93194 11.9654L4.93096 11.9645C2.97875 10.0119 2.97873 6.84669 4.93096 4.89415C6.88358 2.94153 10.0496 2.94153 12.0022 4.89415H12.0042Z"
      fill="#5189FA"
    />
  </g>
</svg>
