<svg width="404" height="264" viewBox="0 0 404 264" fill="none" xmlns="http://www.w3.org/2000/svg">
<path d="M115 246C115 190.772 159.772 146 215 146H294C335.421 146 369 179.579 369 221C369 239.225 354.225 254 336 254H115V246Z" fill="#94A3B8"/>
<path d="M230.781 152.976L224 131.024L269 117V139.167C269 147.931 265.491 156.954 257.504 160.563C243.022 167.107 233.922 159.062 230.781 152.976Z" fill="#CBD5E1"/>
<path d="M288.883 78.5C275.883 114.5 261.883 140 233.383 140C202.731 140 186.383 140 177.883 78.5C177.883 44.5345 202.731 17 233.383 17C264.035 17 288.883 44.5345 288.883 78.5Z" fill="#E2E8F0"/>
<path d="M282.651 88.0471C233.361 100.768 206.274 75.0105 198.891 60.5413C177.305 70.1682 180.339 93.6821 182.89 105C160.742 74.0556 171.913 44.6395 181.173 27.4484C197.42 -2.71594 261.497 -15.0661 291.5 27.4488C304.778 46.2646 302.68 60.6763 298.883 79.4997C295.655 95.5021 278.919 124.5 268.452 121L282.651 88.0471Z" fill="#64748B"/>
<ellipse cx="218.378" cy="102.718" rx="2.5" ry="4" transform="rotate(-2.31066 218.378 102.718)" fill="#64748B"/>
<ellipse cx="204.386" cy="103.283" rx="2.5" ry="4" transform="rotate(-2.31066 204.386 103.283)" fill="#64748B"/>
<path d="M285.013 76.1634C274.471 59.8331 269.2 79.7827 267.883 91.7988L274.032 107C282.084 103.525 295.554 92.4937 285.013 76.1634Z" fill="#E2E8F0"/>
<path d="M94.3322 184.763C94.8151 181.871 97.3179 179.752 100.25 179.752H157.066C157.066 172.482 162.96 166.588 170.23 166.588H212.034C215.689 166.588 218.495 169.828 217.973 173.445L205.638 258.857C205.212 261.809 202.682 264 199.7 264H88.1865C84.4781 264 81.6577 260.669 82.2684 257.011L94.3322 184.763Z" fill="url(#paint0_linear_1_1715)"/>
<path d="M61.0952 178.828C60.5006 175.178 63.3185 171.864 67.0171 171.864H125.984C125.984 163.102 133.087 156 141.848 156H186.784C189.778 156 192.314 158.208 192.727 161.174L206.065 257.174C206.566 260.782 203.764 264 200.122 264H80.0681C77.1267 264 74.619 261.868 74.1462 258.964L61.0952 178.828Z" fill="url(#paint1_linear_1_1715)"/>
<path d="M122.258 226.476L121.872 221.001C121.705 218.164 123.515 215.875 126.676 214.057C130.707 211.908 134.563 210.162 134.28 206.751C134.124 204.885 132.083 203.565 128.656 203.85C125.847 204.084 122.89 205.043 120.87 208.126C119.523 210.182 115.843 210.747 113.227 209.151C110.963 207.655 110.279 204.407 111.225 202.514C113.929 197.689 119.017 194.156 127.789 193.426C140.809 192.343 146.567 201 146.132 207.385C145.527 216.701 137.395 219.321 135.304 220.726C134.509 221.116 133.824 222.015 133.91 223.044L134.072 225.817C134.329 228.906 130.387 230.464 128.036 230.401C125.131 230.319 122.488 229.243 122.258 226.476ZM135.96 241.879C136 244.856 132.881 246.346 129.855 246.469C125.933 246.6 124.244 244.538 124.142 243.316C123.992 241.514 123.853 239.841 123.693 238.753C123.326 235.997 126.339 234.062 129.08 233.834C132.712 233.532 135.218 234.619 135.564 237.117C135.824 238.586 135.889 240.2 135.96 241.879Z" fill="#F1F5F9"/>
<path d="M55.6361 206.837C55.2848 204.656 56.7681 202.603 58.9491 202.252L66.8473 200.979C77.7524 199.223 88.0167 206.639 89.7733 217.544L91.9996 231.366C93.7561 242.271 86.3397 252.536 75.4345 254.292L67.5363 255.564C65.3553 255.916 63.3024 254.432 62.9511 252.251L55.6361 206.837Z" fill="#E2E8F0"/>
<path d="M223.304 208.896C223.645 206.714 222.153 204.668 219.97 204.326L212.066 203.09C201.153 201.384 190.923 208.847 189.216 219.76L187.053 233.592C185.346 244.505 192.81 254.735 203.723 256.442L211.627 257.678C213.809 258.019 215.855 256.527 216.197 254.344L223.304 208.896Z" fill="#E2E8F0"/>
<path d="M111.394 82H19.5C41.1 82 66.5 120.667 69 140H160.5C155.985 110.481 136.069 92.3947 122.935 84.7586C119.452 82.7334 115.423 82 111.394 82Z" fill="#CBD5E1"/>
<path d="M364.871 128H404C393.123 128 374.259 163.333 373 181H333C334.84 159.168 341.761 144.179 347.839 135.558C351.657 130.143 358.245 128 364.871 128Z" fill="#CBD5E1"/>
<path d="M15 82H112C102 82 95.8333 88 94 91H0C2 85 10.8333 82.5 15 82Z" fill="#E2E8F0"/>
<defs>
<linearGradient id="paint0_linear_1_1715" x1="88.569" y1="246.785" x2="197.709" y2="246.785" gradientUnits="userSpaceOnUse">
<stop stop-color="#8AAEFB"/>
<stop offset="1" stop-color="#B1CAFC"/>
</linearGradient>
<linearGradient id="paint1_linear_1_1715" x1="67.9263" y1="244.914" x2="184.342" y2="244.914" gradientUnits="userSpaceOnUse">
<stop stop-color="#A7C2FC"/>
<stop offset="1" stop-color="#C9DAFD"/>
</linearGradient>
</defs>
</svg>
