<svg width="20" height="20" viewBox="0 0 20 20" fill="none" xmlns="http://www.w3.org/2000/svg">
<path fill-rule="evenodd" clip-rule="evenodd" d="M8.21506 3.06076C9.32639 2.10483 10.97 2.10467 12.0813 3.06076C12.5613 3.47368 13.1608 3.72236 13.7922 3.76974C15.254 3.87953 16.4157 5.04141 16.5256 6.50314C16.573 7.13463 16.8216 7.73502 17.2346 8.21506C18.1906 9.32639 18.1907 10.97 17.2346 12.0813C16.8217 12.5613 16.573 13.1608 16.5256 13.7922C16.4158 15.254 15.254 16.4158 13.7922 16.5256C13.1608 16.573 12.5613 16.8217 12.0813 17.2346C10.97 18.1907 9.32639 18.1906 8.21506 17.2346C7.73502 16.8216 7.13463 16.573 6.50314 16.5256C5.04141 16.4157 3.87953 15.254 3.76974 13.7922C3.72236 13.1608 3.47368 12.5613 3.06076 12.0813C2.10467 10.97 2.10483 9.32639 3.06076 8.21506C3.47378 7.73502 3.72235 7.13463 3.76974 6.50314C3.87961 5.04146 5.04146 3.87961 6.50314 3.76974C7.13463 3.72235 7.73502 3.47378 8.21506 3.06076ZM13.9778 7.3508C13.6411 7.04779 13.1226 7.0748 12.8195 7.41135L9.41037 11.1994L7.39182 9.51779C7.04387 9.22784 6.52662 9.27451 6.23654 9.62228C5.94662 9.97019 5.99336 10.4875 6.34103 10.7776L8.8049 12.8303C9.23393 13.1878 9.86881 13.1429 10.2424 12.7278L14.0383 8.509C14.3413 8.17229 14.3144 7.65388 13.9778 7.3508Z" fill="#74A1FB"/>
</svg>
