<svg width="16" height="16" viewBox="0 0 16 16" fill="none" xmlns="http://www.w3.org/2000/svg">
<g clip-path="url(#clip0_1_4029)">
<path fill-rule="evenodd" clip-rule="evenodd" d="M6.5696 2.4485C7.45851 1.6837 8.77331 1.68397 9.66237 2.4485C10.0463 2.77884 10.5264 2.97791 11.0315 3.01588C12.2011 3.10366 13.1312 4.03383 13.219 5.20338C13.257 5.70821 13.4553 6.18771 13.7854 6.57155C14.5503 7.4606 14.5503 8.77525 13.7854 9.66432C13.4551 10.0483 13.257 10.5284 13.219 11.0335C13.1312 12.203 12.2011 13.1332 11.0315 13.221C10.5264 13.2589 10.0463 13.457 9.66237 13.7874C8.7733 14.5523 7.45865 14.5523 6.5696 13.7874C6.18575 13.4573 5.70626 13.2589 5.20143 13.221C4.03187 13.1332 3.10171 12.203 3.01393 11.0335C2.97596 10.5284 2.77689 10.0483 2.44655 9.66432C1.68201 8.77526 1.68175 7.46046 2.44655 6.57155C2.77685 6.18763 2.97593 5.7084 3.01393 5.20338C3.10171 4.03383 4.03187 3.10366 5.20143 3.01588C5.70645 2.97789 6.18568 2.77881 6.5696 2.4485ZM11.1809 5.88014C10.9115 5.63769 10.4956 5.65957 10.2532 5.92897L7.52663 8.96022L5.91139 7.61452C5.63296 7.38249 5.21959 7.42007 4.98756 7.6985C4.75555 7.97693 4.79312 8.39031 5.07155 8.62233L7.04225 10.2649C7.38547 10.5506 7.89289 10.5139 8.19167 10.1819L11.2288 6.8069C11.4712 6.53752 11.4503 6.12259 11.1809 5.88014Z" fill="#74A1FB"/>
</g>
<defs>
<clipPath id="clip0_1_4029">
<rect width="14" height="14" fill="white" transform="translate(1 1)"/>
</clipPath>
</defs>
</svg>
