<svg width="40" height="40" viewBox="0 0 40 40" fill="none" xmlns="http://www.w3.org/2000/svg">
<rect width="40" height="40" rx="12" fill="#E2E8F0"/>
<path d="M28.329 31.1109H11.6623C10.8953 31.1109 10.2734 30.4891 10.2734 29.722V26.9442C10.2734 23.876 12.7607 21.3887 15.829 21.3887H24.1623C27.2306 21.3887 29.7179 23.876 29.7179 26.9442V29.722C29.7179 30.4891 29.0961 31.1109 28.329 31.1109Z" fill="#F8FAFC"/>
<path d="M20.0007 18.6126C22.3018 18.6126 24.1673 16.7471 24.1673 14.446C24.1673 12.1448 22.3018 10.2793 20.0007 10.2793C17.6995 10.2793 15.834 12.1448 15.834 14.446C15.834 16.7471 17.6995 18.6126 20.0007 18.6126Z" fill="#F8FAFC"/>
</svg>
